<?xml version="1.0" standalone="no"?>
<!DOCTYPE svg PUBLIC "-//W3C//DTD SVG 20010904//EN"
 "http://www.w3.org/TR/2001/REC-SVG-20010904/DTD/svg10.dtd">
<svg version="1.0" xmlns="http://www.w3.org/2000/svg"
 width="1024.000000pt" height="1024.000000pt" viewBox="0 0 1024.000000 1024.000000"
 preserveAspectRatio="xMidYMid meet">

<g transform="translate(0.000000,1024.000000) scale(0.100000,-0.100000)"
fill="#000000" stroke="none">
<path d="M3725 8439 c-251 -35 -485 -198 -590 -411 -82 -168 -76 121 -72
-3243 2 -2799 4 -3004 20 -3063 36 -131 118 -266 222 -360 l51 -47 -450 1
c-248 0 -489 -3 -536 -7 -325 -30 -335 -31 -349 -48 -12 -14 -13 -14 -8 0 4
12 0 15 -19 11 -38 -7 -27 -67 12 -61 11 2 35 -2 54 -8 19 -6 42 -11 50 -12 8
0 76 -4 150 -8 74 -4 160 -7 192 -8 31 0 54 -3 52 -6 -2 -4 74 -10 169 -14
264 -10 307 -11 307 -2 0 5 3 6 8 4 28 -18 564 -23 1305 -14 97 1 159 -2 161
-8 3 -7 7 -7 13 0 4 6 72 11 158 11 1182 12 1446 16 1482 23 25 5 40 5 37 -1
-3 -5 15 -7 43 -4 26 3 210 8 408 11 332 5 664 20 674 31 10 9 -16 23 -46 26
l-31 2 19 24 c39 50 17 141 -42 173 -13 7 -563 10 -1738 10 -1000 0 -1743 4
-1776 9 -172 28 -312 181 -323 353 l-4 72 48 47 c102 100 137 132 117 108 -57
-66 -90 -191 -62 -230 9 -13 10 -12 5 3 -4 12 0 17 15 17 11 0 29 5 40 10 14
8 19 7 20 -2 1 -7 5 7 10 31 10 54 47 103 92 125 32 15 175 16 1664 16 l1629
0 13 38 c8 20 16 43 18 49 4 10 -47 13 -219 16 l-223 2 226 3 226 2 46 69 c39
58 55 73 101 94 186 85 341 262 412 469 56 166 54 52 54 2598 0 1574 -4 2366
-11 2409 -44 274 -262 537 -529 640 -163 63 -104 61 -1744 60 -820 -1 -1518
-5 -1551 -10z m3148 -228 c219 -58 393 -234 454 -461 16 -58 18 -123 18 -600
0 -1391 -6 -3543 -10 -3539 -2 3 -5 121 -6 262 -1 141 -5 254 -10 252 -4 -3
-10 5 -12 17 -2 13 -5 3 -7 -22 -2 -42 -3 -43 -10 -15 -4 17 -9 26 -11 20 -1
-5 -6 28 -9 75 -3 47 -8 -129 -9 -390 -2 -261 -7 -558 -10 -660 -5 -112 -8
166 -10 705 -1 490 -6 980 -12 1090 -5 110 -9 216 -10 235 0 76 -11 160 -20
155 -12 -8 -12 8 1 21 12 12 1 136 -11 129 -4 -3 -10 -1 -14 5 -3 5 -3 10 2
10 4 0 13 12 20 26 9 20 9 26 -3 31 -17 6 -19 63 -1 63 8 0 8 3 -2 9 -12 8
-13 12 -1 25 7 9 10 19 6 23 -3 3 -6 1 -6 -5 0 -7 -7 -12 -15 -12 -9 0 -12 -6
-8 -16 5 -14 3 -14 -15 -3 -21 13 -21 14 -3 20 25 10 33 36 18 59 -14 23 -27
26 -27 6 0 -8 8 -17 18 -19 12 -3 13 -5 2 -6 -8 0 -22 4 -30 9 -12 7 -12 12
-2 22 17 17 15 38 -3 38 -15 0 -19 -10 -16 -40 1 -11 -2 -10 -10 3 -9 15 -7
23 11 42 12 13 19 28 16 34 -4 7 -1 8 8 5 9 -3 13 -11 9 -17 -3 -6 -1 -7 5 -3
19 11 14 34 -9 47 -12 6 -19 7 -15 1 3 -5 -1 -13 -10 -16 -8 -3 -13 -10 -10
-15 3 -5 -3 -11 -14 -14 -26 -7 -25 1 1 24 24 21 25 29 7 40 -9 6 -9 9 -1 9 7
0 17 8 22 19 9 16 7 17 -14 13 -14 -2 -25 0 -25 6 0 6 -3 17 -6 25 -4 12 0 14
18 10 17 -3 19 -2 9 5 -7 5 -11 14 -7 20 8 14 -4 43 -15 36 -5 -3 -9 12 -9 33
0 28 3 34 10 23 6 -10 10 -11 10 -2 0 19 -4 27 -12 25 -5 -2 -8 243 -9 545 -2
858 -5 981 -30 1055 -44 131 -126 216 -248 256 -63 21 -75 21 -1380 22 -724 0
-1334 1 -1356 2 l-40 1 -3 -2637 -2 -2637 1372 2 1373 3 57 23 c70 28 158 106
199 176 29 49 30 50 24 16 -15 -77 -81 -157 -168 -201 -97 -50 -51 -49 -1499
-49 l-1358 0 0 -120 0 -120 -30 0 -30 0 0 1294 c0 1026 -3 1295 -12 1299 -10
4 -10 7 -1 14 12 9 11 42 -3 65 -5 7 -3 8 6 3 9 -5 11 -4 6 4 -12 19 -12 121
-1 121 6 0 4 4 -4 9 -10 6 -12 19 -7 42 4 19 7 45 7 59 0 14 -1 35 -1 47 0 12
-8 27 -18 32 -11 7 -12 11 -4 11 11 0 13 38 10 189 -2 104 -6 187 -10 185 -10
-6 -29 59 -20 68 5 5 3 36 -5 70 -18 77 -14 124 9 122 10 -1 15 3 12 8 -3 5
-12 7 -20 4 -10 -4 -14 3 -14 24 0 17 -4 30 -10 30 -5 0 -10 -5 -10 -11 0 -5
-5 -7 -11 -3 -7 4 -8 9 -1 13 11 7 34 82 27 89 -3 3 -11 -10 -19 -29 -15 -34
-20 -32 -16 6 2 16 0 17 -14 6 -14 -11 -16 -11 -16 3 0 10 3 15 8 13 4 -3 21
1 37 9 24 11 25 13 5 8 l-25 -6 25 27 25 28 -32 -17 c-18 -9 -33 -22 -34 -29
0 -6 -4 -3 -9 8 -5 13 -9 -20 -9 -90 -1 -60 -5 -137 -10 -170 -5 -36 -9 412
-10 1097 l-1 1157 102 4 c57 2 735 2 1508 1 1382 -2 1406 -3 1483 -23z m-3313
-313 l0 -248 -35 0 c-31 0 -35 3 -35 26 0 23 -3 25 -24 20 -20 -5 -24 -2 -25
19 -3 48 -4 53 -17 48 -14 -5 -37 30 -27 41 3 3 -1 6 -10 6 -9 0 -17 -4 -17
-10 0 -5 5 -10 11 -10 5 0 7 -4 4 -10 -3 -5 5 -15 19 -22 14 -6 26 -15 26 -20
0 -5 -8 -4 -19 1 -10 6 -22 7 -26 3 -3 -4 -5 0 -3 8 2 10 -4 15 -19 14 -13 -1
-20 3 -17 7 3 5 10 7 15 4 14 -9 11 11 -4 23 -15 13 -15 55 0 74 5 7 7 24 2
38 -4 14 -7 20 -8 14 -1 -6 -16 -17 -33 -24 -18 -7 -44 -25 -56 -39 -43 -47
44 109 90 163 53 62 188 152 200 134 4 -7 8 -124 8 -260z m623 35 c-7 -2 -19
-2 -25 0 -7 3 -2 5 12 5 14 0 19 -2 13 -5z m164 1 c-3 -3 -12 -4 -19 -1 -8 3
-5 6 6 6 11 1 17 -2 13 -5z m136 -1 c-24 -2 -62 -2 -85 0 -24 2 -5 4 42 4 47
0 66 -2 43 -4z m155 0 c-15 -2 -42 -2 -60 0 -18 2 -6 4 27 4 33 0 48 -2 33 -4z
m90 0 c-10 -2 -28 -2 -40 0 -13 2 -5 4 17 4 22 1 32 -1 23 -4z m79 1 c-3 -3
-12 -4 -19 -1 -8 3 -5 6 6 6 11 1 17 -2 13 -5z m1911 1 c-6 -7 -1879 -7 -1886
0 -3 3 421 5 943 5 522 0 946 -2 943 -5z m76 -21 c26 -9 45 -18 43 -20 -2 -2
-28 5 -58 15 -30 11 -49 20 -43 20 6 1 32 -6 58 -15z m166 -128 c-3 -2 -23 17
-44 42 l-39 47 43 -42 c24 -23 42 -44 40 -47z m-3527 -81 c-3 -9 -8 -14 -10
-11 -3 3 -2 9 2 15 9 16 15 13 8 -4z m121 -327 c8 -73 6 -556 -2 -609 -3 -22
-10 -29 -27 -29 -30 0 -32 7 -34 125 -1 55 -6 104 -11 110 -4 5 -9 15 -9 20
-3 23 -13 45 -22 45 -6 0 -7 -5 -3 -12 5 -7 3 -8 -5 -4 -7 5 -10 14 -7 22 3 8
2 14 -3 14 -5 0 -7 12 -5 27 1 15 -2 33 -8 40 -7 9 -7 13 1 13 6 0 11 -4 11
-10 0 -5 4 -10 10 -10 5 0 6 7 3 17 -5 12 -3 14 8 8 8 -5 11 -5 6 1 -5 5 -13
10 -18 10 -22 3 -23 5 -9 15 12 8 9 9 -13 5 -25 -6 -27 -5 -15 13 9 15 15 17
21 8 6 -8 7 -8 4 3 -2 8 -11 14 -21 12 -9 -2 -16 2 -16 8 0 5 7 10 15 10 17 0
19 11 6 26 -14 15 -23 76 -10 68 7 -4 7 1 -1 15 -6 12 -16 18 -22 15 -7 -4 -8
-3 -4 4 4 6 14 8 23 5 10 -4 14 -2 9 5 -3 6 3 13 15 17 11 4 18 9 15 12 -9 10
-109 -52 -152 -95 -24 -23 -44 -38 -44 -32 0 7 28 40 63 74 66 67 140 105 208
105 l36 1 7 -72z m2199 -22 c306 -92 561 -320 671 -599 65 -165 89 -345 67
-510 -17 -125 -27 -142 -26 -45 0 76 -2 83 -20 83 -17 0 -21 -9 -27 -57 -28
-223 -153 -440 -366 -635 -279 -257 -349 -335 -411 -457 -39 -79 -60 -163 -70
-283 l-8 -98 -1 75 c0 41 3 98 7 127 6 44 5 51 -6 41 -8 -6 -12 -16 -9 -23 2
-6 -1 -12 -7 -13 -7 0 -29 -3 -49 -5 -21 -2 -38 0 -38 6 0 5 -8 3 -17 -4 -11
-10 -14 -10 -9 -1 11 18 -5 14 -21 -5 -10 -14 -13 -14 -11 -3 2 8 14 21 28 28
l25 13 -28 -6 c-21 -4 -27 -2 -21 6 4 8 3 9 -5 5 -6 -4 -9 -12 -6 -17 8 -12
-2 -11 -26 2 -11 5 -16 15 -13 21 4 7 3 8 -5 4 -6 -4 -8 -12 -5 -18 5 -7 1 -9
-9 -5 -15 5 -17 -1 -17 -47 0 -29 -3 -89 -7 -132 l-8 -79 -10 100 c-9 90 -12
100 -30 100 -17 0 -21 -9 -27 -64 -13 -116 -18 -88 -14 79 4 181 15 232 76
351 48 95 86 142 222 274 68 66 181 175 250 243 195 188 262 313 277 516 5 55
9 87 10 69 1 -30 21 -58 21 -31 1 7 8 1 16 -14 8 -16 17 -28 21 -28 3 0 3 39
-1 86 -16 218 -126 401 -313 524 -109 72 -174 92 -323 97 -215 9 -341 -39
-488 -185 -143 -143 -202 -284 -202 -488 0 -153 -27 -212 -109 -234 -74 -20
-143 31 -172 128 -11 38 -15 42 -45 42 -18 0 -35 -6 -38 -12 -3 -7 -4 50 -2
127 4 178 30 294 96 430 125 258 381 464 655 528 109 25 109 25 305 23 167 -3
194 -6 273 -30z m-2277 -399 c3 -21 1 -21 -20 2 -17 19 -17 19 0 17 9 -2 18
-10 20 -19z m2141 -252 c125 -62 202 -170 209 -293 l4 -67 -13 50 c-23 86 -74
179 -123 224 -89 83 -211 116 -323 87 -119 -30 -186 -86 -252 -207 -32 -59
-39 -67 -33 -39 16 83 93 191 168 235 112 65 243 69 363 10z m-2057 -435 l0
-280 -35 0 -35 0 0 244 c0 168 -3 247 -11 252 -8 4 -7 9 2 15 10 6 7 9 -11 9
-38 0 -129 -46 -185 -93 l-49 -42 32 47 c50 73 156 126 255 127 l37 1 0 -280z
m1289 -78 c-6 -23 -16 -45 -22 -49 -7 -4 -8 2 -3 18 4 13 13 78 19 144 l12
120 3 -95 c2 -53 -2 -114 -9 -138z m-629 13 c64 -254 288 -427 502 -387 172
32 303 164 340 343 14 68 28 77 28 19 0 -129 -123 -301 -259 -363 -209 -95
-460 7 -582 237 -44 82 -59 147 -57 251 l1 90 7 -70 c4 -38 13 -92 20 -120z
m2486 -89 c-54 -312 -202 -550 -500 -800 -167 -141 -224 -203 -278 -303 -58
-108 -65 -79 -8 34 46 92 102 154 245 269 187 152 332 321 409 479 64 132 133
356 138 448 l1 32 4 -34 c3 -19 -3 -75 -11 -125z m-2876 24 c0 -5 -4 -10 -10
-10 -5 0 -10 5 -10 10 0 6 5 10 10 10 6 0 10 -4 10 -10z m3247 -312 c-3 -7 -5
-2 -5 12 0 14 2 19 5 13 2 -7 2 -19 0 -25z m-3523 -85 c8 -52 7 -205 -2 -220
-4 -6 -19 -9 -35 -6 l-27 5 0 94 c0 90 -1 95 -24 105 -34 16 -116 -15 -172
-64 -47 -42 -55 -41 -25 2 43 59 164 120 242 121 34 0 37 -2 43 -37z m3536
-87 c0 -3 -4 -8 -10 -11 -5 -3 -10 -1 -10 4 0 6 5 11 10 11 6 0 10 -2 10 -4z
m91 -289 c-10 -9 -11 -8 -5 6 3 10 9 15 12 12 3 -3 0 -11 -7 -18z m-3241 -43
c0 -8 -4 -12 -10 -9 -5 3 -10 10 -10 16 0 5 5 9 10 9 6 0 10 -7 10 -16z m-380
-279 l0 -265 -29 0 c-17 0 -31 6 -35 16 -3 9 -6 119 -6 245 0 201 -2 229 -16
229 -8 0 -13 -3 -11 -7 3 -5 -11 -8 -31 -8 -34 -1 -81 -24 -151 -73 l-25 -17
18 27 c38 58 160 116 249 117 l37 1 0 -265z m-7 -668 c8 -240 4 -277 -28 -277
-31 0 -33 18 -35 250 0 107 -2 195 -4 197 -9 9 -142 -42 -188 -73 l-53 -36 30
32 c62 66 153 109 231 110 l41 0 6 -203z m2305 56 c3 -10 -87 -13 -427 -13
-258 0 -431 4 -431 9 0 5 8 12 18 14 9 3 201 4 426 3 318 -1 410 -4 414 -13z
m-318 -339 c139 -41 229 -157 230 -294 0 -36 -3 -75 -6 -88 l-7 -23 -11 23
c-6 13 -21 24 -32 26 -16 2 -23 -5 -33 -38 -14 -46 -61 -104 -102 -126 -48
-24 -46 -15 4 16 26 17 47 33 47 36 0 4 -6 2 -13 -5 -10 -7 -17 -7 -24 0 -8 8
-15 5 -24 -8 -8 -11 -20 -23 -27 -27 -11 -7 -12 -4 -3 13 7 11 9 21 6 21 -3 0
-7 0 -10 0 -3 0 -5 -3 -6 -7 -1 -14 -42 -30 -63 -25 -12 3 -30 12 -40 21 -11
9 -17 11 -13 5 9 -15 -60 -26 -84 -13 -13 6 -19 6 -19 0 0 -14 36 -32 45 -23
5 4 5 1 1 -6 -6 -10 -13 -10 -34 4 -51 32 -81 67 -103 120 -12 30 -25 54 -30
54 -4 0 -17 -10 -28 -22 -21 -22 -23 -21 -34 28 -7 33 12 132 33 175 24 46 71
101 112 130 64 46 177 60 268 33z m-1990 -318 l0 -123 -25 5 c-29 5 -41 48
-31 116 9 58 -1 96 -25 96 -26 0 -129 -39 -161 -62 -16 -11 -28 -15 -28 -9 0
32 148 101 218 101 l52 0 0 -124z m1375 -138 c77 -237 288 -398 521 -398 76 0
200 31 267 67 109 59 197 169 252 316 10 26 19 46 21 45 1 -2 -2 -28 -8 -58
-45 -249 -354 -442 -624 -391 -181 35 -345 161 -419 323 -23 51 -44 148 -32
148 3 0 13 -24 22 -52z m665 -28 c0 -5 -5 -10 -11 -10 -5 0 -7 5 -4 10 3 6 8
10 11 10 2 0 4 -4 4 -10z m-197 -57 c-7 -2 -19 -2 -25 0 -7 3 -2 5 12 5 14 0
19 -2 13 -5z m130 0 c-7 -2 -19 -2 -25 0 -7 3 -2 5 12 5 14 0 19 -2 13 -5z
m-55 -10 c-10 -2 -28 -2 -40 0 -13 2 -5 4 17 4 22 1 32 -1 23 -4z m-1918 -120
c0 -21 3 -82 7 -135 l6 -98 -31 0 c-37 0 -36 -4 -37 125 l0 100 -31 3 c-42 4
-138 -34 -182 -72 -28 -25 -33 -27 -24 -9 26 48 120 102 197 113 95 14 95 14
95 -27z m3787 -375 c-3 -7 -5 -2 -5 12 0 14 2 19 5 13 2 -7 2 -19 0 -25z
m-3784 -210 c4 -79 7 -205 7 -280 l0 -138 -35 0 -35 0 0 115 0 115 -27 -6
c-53 -13 -133 -56 -190 -102 -53 -43 -56 -44 -35 -15 44 62 144 127 225 147
l27 6 0 135 c0 74 -4 135 -8 135 -5 0 -32 -7 -62 -16 -59 -17 -91 -35 -132
-73 -16 -13 -28 -20 -28 -13 0 19 108 94 163 113 29 10 68 18 88 19 l36 0 6
-142z m870 -735 c-13 -2 -33 -2 -45 0 -13 2 -3 4 22 4 25 0 35 -2 23 -4z m210
0 c-7 -2 -19 -2 -25 0 -7 3 -2 5 12 5 14 0 19 -2 13 -5z m445 0 c-75 -2 -201
-2 -280 0 -79 1 -17 3 137 3 154 0 218 -2 143 -3z m1120 2 c-7 -7 -969 -8
-976 -1 -3 3 217 6 488 6 271 0 491 -2 488 -5z m125 -2 c-18 -2 -48 -2 -65 0
-18 2 -4 4 32 4 36 0 50 -2 33 -4z"/>
<path d="M3820 6385 c-8 -10 -10 -29 -6 -56 4 -26 2 -46 -5 -55 -9 -11 -7 -14
14 -14 29 0 46 18 27 30 -7 5 -13 30 -14 59 -1 28 -2 51 -2 51 -1 0 -7 -7 -14
-15z"/>
<path d="M7087 6146 c-11 -29 -8 -46 7 -40 8 3 16 14 19 25 3 10 1 17 -3 14
-5 -3 -10 0 -12 7 -3 7 -7 5 -11 -6z"/>
<path d="M7110 6052 c0 -6 -8 -13 -17 -15 -16 -4 -16 -5 -1 -6 18 -1 34 16 24
26 -3 4 -6 1 -6 -5z"/>
<path d="M7095 5920 c3 -5 8 -10 11 -10 2 0 4 5 4 10 0 6 -5 10 -11 10 -5 0
-7 -4 -4 -10z"/>
<path d="M7126 5875 c-3 -9 0 -15 9 -15 8 0 15 7 15 15 0 8 -4 15 -9 15 -5 0
-11 -7 -15 -15z"/>
<path d="M3941 5264 c0 -11 3 -14 6 -6 3 7 2 16 -1 19 -3 4 -6 -2 -5 -13z"/>
<path d="M3363 7840 c-12 -31 -8 -36 17 -20 8 5 10 10 3 10 -6 0 -9 9 -6 20 8
30 -1 24 -14 -10z"/>
<path d="M3455 7069 c-4 -6 -5 -12 -2 -15 2 -3 7 2 10 11 7 17 1 20 -8 4z"/>
<path d="M5540 5000 c-7 -13 -18 -19 -28 -16 -23 7 -50 -9 -29 -17 25 -9 54 3
66 29 13 29 6 32 -9 4z"/>
<path d="M5483 3604 c0 -7 6 -10 14 -7 7 3 13 8 13 12 0 4 -6 8 -13 8 -8 0
-14 -6 -14 -13z"/>
<path d="M5 1080 c3 -5 8 -10 11 -10 2 0 4 5 4 10 0 6 -5 10 -11 10 -5 0 -7
-4 -4 -10z"/>
<path d="M6 983 c-3 -3 -6 -30 -6 -59 0 -46 3 -53 23 -58 13 -3 36 -1 52 3 25
8 19 16 -7 12 -15 -2 -8 22 9 34 15 11 14 13 -10 13 -15 0 -27 -5 -27 -10 0
-5 -5 -6 -11 -2 -6 3 -9 20 -7 36 5 28 -3 44 -16 31z"/>
<path d="M32 853 l-32 -4 0 -425 0 -424 620 0 c597 0 620 1 620 19 0 10 -9 21
-20 24 -11 3 -24 16 -30 29 -9 20 -9 18 -5 -12 l6 -35 -16 34 c-10 23 -20 31
-30 27 -9 -3 -13 -2 -10 3 3 5 0 11 -7 14 -7 2 -2 3 12 2 14 -1 19 0 13 2 -7
3 -13 8 -13 12 0 5 -23 6 -50 3 -50 -4 -50 -4 -50 24 0 22 -3 25 -10 14 -5 -8
-12 -11 -16 -7 -4 3 -1 13 5 21 10 12 8 13 -10 9 -12 -4 -20 -2 -17 3 3 5 2
18 -3 29 -7 19 -8 19 -8 -2 -1 -13 -6 -23 -12 -23 -7 0 -9 11 -5 30 3 17 1 30
-4 30 -6 0 -9 -3 -9 -7 3 -21 -2 -33 -16 -33 -8 0 -15 7 -15 15 0 12 -10 15
-42 14 -69 -3 -78 -1 -78 21 0 11 -4 20 -9 20 -5 0 -16 2 -23 5 -9 4 -19 -4
-26 -17 l-12 -23 6 22 c4 18 2 22 -10 17 -13 -5 -14 -1 -6 24 10 37 5 43 -27
31 -32 -12 -63 -12 -63 1 0 6 11 10 24 10 14 0 27 4 30 9 11 16 -6 19 -34 4
-31 -15 -50 -11 -50 10 0 7 -9 18 -20 25 -22 14 -27 42 -7 43 6 0 -1 6 -16 13
-16 7 -33 19 -38 27 -7 12 -10 11 -21 -3 -9 -13 -17 -15 -28 -8 -18 11 -5 26
30 33 14 3 4 4 -21 2 -45 -4 -47 -2 -53 26 -5 25 -8 28 -19 17 -16 -14 -17
-39 -3 -50 5 -3 -2 -5 -17 -5 -14 1 -23 5 -20 10 2 4 -4 7 -14 7 -17 1 -17 1
-1 11 19 11 14 37 -10 55 -9 6 -12 16 -7 23 6 10 3 11 -14 2 -14 -8 -21 -8
-21 -1 0 6 7 13 15 16 13 5 12 10 -6 25 -27 23 -30 24 -23 4 4 -8 11 -15 18
-15 6 0 3 -5 -7 -11 -10 -6 -21 -8 -24 -5 -4 3 -1 6 7 6 10 0 10 3 0 15 -11
13 -14 13 -26 -2 -13 -17 -14 -17 -7 1 5 16 3 18 -13 13 -16 -6 -17 -5 -4 5
16 13 13 76 -3 70 -4 -1 -15 2 -25 8 -14 9 -13 10 8 6 16 -4 12 1 -12 12 -23
10 -38 24 -38 35 0 10 -8 17 -20 17 -21 0 -28 24 -10 35 15 9 12 25 -5 25 -8
0 -15 -4 -15 -10 0 -5 -7 -10 -16 -10 -8 0 -12 5 -9 10 3 6 0 9 -7 8 -7 0 -28
-3 -46 -5z m105 -158 c0 -8 -4 -12 -9 -9 -5 3 -6 10 -3 15 9 13 12 11 12 -6z
m78 -86 c11 -16 1 -19 -13 -3 -7 8 -8 14 -3 14 5 0 13 -5 16 -11z m105 -33 c0
-3 -4 -8 -10 -11 -5 -3 -10 -1 -10 4 0 6 5 11 10 11 6 0 10 -2 10 -4z m97 -58
c-3 -8 -6 -5 -6 6 -1 11 2 17 5 13 3 -3 4 -12 1 -19z m103 -73 c0 -8 -4 -15
-10 -15 -5 0 -10 7 -10 15 0 8 5 15 10 15 6 0 10 -7 10 -15z m26 -72 c-10 -10
-19 5 -10 18 6 11 8 11 12 0 2 -7 1 -15 -2 -18z m44 -33 c0 -5 -4 -10 -10 -10
-5 0 -10 5 -10 10 0 6 5 10 10 10 6 0 10 -4 10 -10z m27 -47 c-3 -10 -5 -4 -5
12 0 17 2 24 5 18 2 -7 2 -21 0 -30z m341 -111 c8 -6 2 -9 -18 -9 -20 0 -26 3
-18 9 7 4 15 8 18 8 3 0 11 -4 18 -8z"/>
<path d="M262 670 c-12 -19 -11 -20 8 -8 11 7 20 16 20 20 0 15 -15 8 -28 -12z"/>
<path d="M380 580 c-9 -6 -10 -10 -3 -10 6 0 15 5 18 10 8 12 4 12 -15 0z"/>
<path d="M370 520 c0 -5 5 -10 10 -10 6 0 10 5 10 10 0 6 -4 10 -10 10 -5 0
-10 -4 -10 -10z"/>
<path d="M690 420 c0 -11 5 -20 10 -20 6 0 10 9 10 20 0 11 -4 20 -10 20 -5 0
-10 -9 -10 -20z"/>
<path d="M600 420 c0 -5 5 -10 10 -10 6 0 10 5 10 10 0 6 -4 10 -10 10 -5 0
-10 -4 -10 -10z"/>
<path d="M838 253 c6 -2 18 -2 25 0 6 3 1 5 -13 5 -14 0 -19 -2 -12 -5z"/>
</g>
</svg>
